<?xml version="1.0" encoding="UTF-8" standalone="no"?>
<svg width="637px" height="145px" viewBox="0 0 637 145" version="1.1" xmlns="http://www.w3.org/2000/svg" xmlns:xlink="http://www.w3.org/1999/xlink" xmlns:sketch="http://www.bohemiancoding.com/sketch/ns">
    <!-- Generator: Sketch 3.2.2 (9983) - http://www.bohemiancoding.com/sketch -->
    <title>nashville-logo</title>
    <desc>Created with Sketch.</desc>
    <defs></defs>
    <g id="Logos-(For-Export)" stroke="none" stroke-width="1" fill="none" fill-rule="evenodd" sketch:type="MSPage">
        <g id="nashville-logo" sketch:type="MSArtboardGroup" transform="translate(-134.000000, -10.000000)" fill="#FFFFFF">
            <path d="M291.38,74 L297.364,74 L297.364,23.488 L314.348,74 L321.212,74 L321.212,11.08 L315.316,11.08 L315.316,57.808 L299.388,11.08 L291.38,11.08 L291.38,74 Z M357.244,74 L363.756,74 L352.668,11.08 L342.724,11.08 L331.548,74 L337.796,74 L340.436,58.16 L354.516,58.16 L357.244,74 Z M347.476,16.272 L353.636,53.056 L341.228,53.056 L347.476,16.272 Z M386.412,74.792 C394.684,74.792 400.228,69.952 400.228,59.568 L400.228,58.248 C400.228,48.04 396.092,44.08 387.908,38.008 C381.22,32.992 378.844,30.264 378.844,24.016 L378.844,23.664 C378.844,18.384 381.396,15.744 385.884,15.744 C390.284,15.744 393.1,17.944 393.1,24.28 L393.1,26.48 L399.26,26.48 L399.26,24.28 C399.26,14.864 394.332,10.288 385.884,10.288 C377.788,10.288 372.596,15.304 372.596,24.104 L372.596,24.368 C372.596,33.256 376.732,37.656 383.948,43.112 C390.812,48.392 393.892,51.208 393.892,58.6 L393.892,59.832 C393.892,66.08 391.164,69.336 386.412,69.336 C380.604,69.336 378.14,66.168 378.14,59.04 L378.14,56.928 L371.804,56.928 L371.804,59.04 C371.804,69.16 376.996,74.792 386.412,74.792 L386.412,74.792 Z M412.148,74 L418.748,74 L418.748,44.96 L435.292,44.96 L435.292,74 L441.98,74 L441.98,11.08 L435.292,11.08 L435.292,39.416 L418.748,39.416 L418.748,11.08 L412.148,11.08 L412.148,74 Z M468.42,66.432 L458.74,11.08 L452.228,11.08 L463.668,74 L472.732,74 L484.172,11.08 L478.012,11.08 L468.42,66.432 Z M494.86,74 L501.46,74 L501.46,11.08 L494.86,11.08 L494.86,74 Z M514.876,74 L538.636,74 L538.636,68.72 L521.476,68.72 L521.476,11.08 L514.876,11.08 L514.876,74 Z M549.5,74 L573.26,74 L573.26,68.72 L556.1,68.72 L556.1,11.08 L549.5,11.08 L549.5,74 Z M584.124,74 L609.38,74 L609.38,68.72 L590.724,68.72 L590.724,42.936 L604.98,42.936 L604.98,37.656 L590.724,37.656 L590.724,16.36 L608.236,16.36 L608.236,11.08 L584.124,11.08 L584.124,74 Z M134.048,154 L151.736,154 C163.528,154 169.776,149.776 169.776,138.16 L169.776,134.112 C169.776,126.104 165.64,122.232 158.952,120.912 C164.672,119.592 168.368,116.16 168.368,109.56 L168.368,105.16 C168.368,95.568 162.824,91.08 151.384,91.08 L134.048,91.08 L134.048,154 Z M147.336,144.408 L147.336,125.576 L150.24,125.576 C154.552,125.576 156.312,126.896 156.312,132.616 L156.312,137.104 C156.312,142.384 154.552,144.408 150.504,144.408 L147.336,144.408 Z M147.336,116.512 L147.336,100.672 L150.152,100.672 C153.672,100.672 155.52,101.64 155.52,106.392 L155.52,110.352 C155.52,115.016 154.024,116.512 150.152,116.512 L147.336,116.512 Z M201.936,91.08 L201.936,136.84 C201.936,142.12 200.528,143.968 197.184,143.968 C193.576,143.968 192.344,142.12 192.344,136.928 L192.344,91.08 L178.792,91.08 L178.792,137.192 C178.792,149.424 185.392,154.968 197.096,154.968 C208.712,154.968 215.576,149.512 215.576,137.28 L215.576,91.08 L201.936,91.08 Z M241.752,154.968 C252.928,154.968 259.176,149.248 259.176,137.808 L259.176,136.576 C259.176,124.256 252.752,120.472 245.272,115.72 C239.816,112.024 237.88,110.44 237.88,105.952 L237.88,105.6 C237.88,102.08 239.112,100.672 241.664,100.672 C244.04,100.672 245.712,101.816 245.712,106.304 L245.712,108.328 L258.472,108.328 L258.472,106.48 C258.384,95.392 252.312,90.2 241.664,90.2 C230.84,90.2 224.68,96.008 224.68,106.48 L224.68,106.832 C224.68,117.216 228.992,121.88 237.176,127.072 C242.808,130.768 245.888,132.528 245.888,138.16 L245.888,138.864 C245.888,142.912 244.568,144.672 241.752,144.672 C238.496,144.672 237.176,143 237.176,137.896 L237.176,135.432 L224.064,135.432 L224.064,137.456 C224.152,150.04 231.016,154.968 241.752,154.968 L241.752,154.968 Z M268.72,154 L282.36,154 L282.36,91.08 L268.72,91.08 L268.72,154 Z M293.048,154 L304.752,154 L304.752,114.928 L317.248,154 L330.096,154 L330.096,91.08 L318.304,91.08 L318.304,124.696 L307.656,91.08 L293.048,91.08 L293.048,154 Z M340.52,154 L369.912,154 L369.912,143.352 L354.072,143.352 L354.072,125.928 L365.864,125.928 L365.864,115.808 L354.072,115.808 L354.072,101.728 L369.032,101.728 L369.032,91.08 L340.52,91.08 L340.52,154 Z M395.208,154.968 C406.384,154.968 412.632,149.248 412.632,137.808 L412.632,136.576 C412.632,124.256 406.208,120.472 398.728,115.72 C393.272,112.024 391.336,110.44 391.336,105.952 L391.336,105.6 C391.336,102.08 392.568,100.672 395.12,100.672 C397.496,100.672 399.168,101.816 399.168,106.304 L399.168,108.328 L411.928,108.328 L411.928,106.48 C411.84,95.392 405.768,90.2 395.12,90.2 C384.296,90.2 378.136,96.008 378.136,106.48 L378.136,106.832 C378.136,117.216 382.448,121.88 390.632,127.072 C396.264,130.768 399.344,132.528 399.344,138.16 L399.344,138.864 C399.344,142.912 398.024,144.672 395.208,144.672 C391.952,144.672 390.632,143 390.632,137.896 L390.632,135.432 L377.52,135.432 L377.52,137.456 C377.608,150.04 384.472,154.968 395.208,154.968 L395.208,154.968 Z M437.928,154.968 C449.104,154.968 455.352,149.248 455.352,137.808 L455.352,136.576 C455.352,124.256 448.928,120.472 441.448,115.72 C435.992,112.024 434.056,110.44 434.056,105.952 L434.056,105.6 C434.056,102.08 435.288,100.672 437.84,100.672 C440.216,100.672 441.888,101.816 441.888,106.304 L441.888,108.328 L454.648,108.328 L454.648,106.48 C454.56,95.392 448.488,90.2 437.84,90.2 C427.016,90.2 420.856,96.008 420.856,106.48 L420.856,106.832 C420.856,117.216 425.168,121.88 433.352,127.072 C438.984,130.768 442.064,132.528 442.064,138.16 L442.064,138.864 C442.064,142.912 440.744,144.672 437.928,144.672 C434.672,144.672 433.352,143 433.352,137.896 L433.352,135.432 L420.24,135.432 L420.24,137.456 C420.328,150.04 427.192,154.968 437.928,154.968 L437.928,154.968 Z M484.208,154.528 C494.592,154.528 500.048,148.72 500.048,137.896 L500.048,91.08 L486.408,91.08 L486.408,137.28 C486.408,141.68 484.472,143.176 481.04,143.176 C479.192,143.176 477.96,142.912 476.904,142.648 L476.904,153.208 C478.488,153.912 480.6,154.528 484.208,154.528 L484.208,154.528 Z M528.776,154.968 C540.48,154.968 548.048,148.896 548.048,135.784 L548.048,109.032 C548.048,95.832 540.216,90.2 528.776,90.2 C517.688,90.2 509.592,96.184 509.592,109.12 L509.592,136.136 C509.592,149.072 517.072,154.968 528.776,154.968 L528.776,154.968 Z M528.776,144.056 C525.08,144.056 523.408,141.768 523.408,136.048 L523.408,109.032 C523.408,103.4 525.168,101.112 528.776,101.112 C532.472,101.112 534.232,103.576 534.232,109.032 L534.232,135.96 C534.232,141.68 532.472,144.056 528.776,144.056 L528.776,144.056 Z M581,91.08 L581,136.84 C581,142.12 579.592,143.968 576.248,143.968 C572.64,143.968 571.408,142.12 571.408,136.928 L571.408,91.08 L557.856,91.08 L557.856,137.192 C557.856,149.424 564.456,154.968 576.16,154.968 C587.776,154.968 594.64,149.512 594.64,137.28 L594.64,91.08 L581,91.08 Z M604.888,154 L618.44,154 L618.44,127.776 L620.904,127.776 L627.856,154 L641.936,154 L633.664,125.664 C637.8,123.64 640.176,120.296 640.176,113.168 L640.176,106.744 C640.176,96.272 635.248,91.08 622.048,91.08 L604.888,91.08 L604.888,154 Z M618.44,119.064 L618.44,101.464 L621.608,101.464 C625.392,101.464 626.976,102.96 626.976,107.184 L626.976,112.992 C626.976,117.48 625.304,119.064 621.608,119.064 L618.44,119.064 Z M650.16,154 L661.864,154 L661.864,114.928 L674.36,154 L687.208,154 L687.208,91.08 L675.416,91.08 L675.416,124.696 L664.768,91.08 L650.16,91.08 L650.16,154 Z M720.776,154 L734.504,154 L724.472,91.08 L705.024,91.08 L695.08,154 L707.488,154 L709.16,141.152 L719.016,141.152 L720.776,154 Z M714.088,103.136 L717.784,131.736 L710.392,131.736 L714.088,103.136 Z M742.376,154 L770.096,154 L770.096,143.176 L755.928,143.176 L755.928,91.08 L742.376,91.08 L742.376,154 Z" id="NASHVILLE" sketch:type="MSShapeGroup"></path>
        </g>
    </g>
</svg>